<?xml version="1.0" encoding="UTF-8"?><svg xmlns="http://www.w3.org/2000/svg" viewBox="0 0 300.16 70.8"><defs><style>.d{fill:#3a3a3a;}</style></defs><g id="a"/><g id="b"><g id="c"><g><path class="d" d="M45.12,4.83v-1.81h23.44v1.81h-2.49c-2.6,0-4.61,1.09-6.01,3.27-.68,1.04-1.03,3.39-1.03,7.03v26.86c0,6.61-.67,11.77-2,15.48-.85,2.38-2.05,4.4-3.61,6.08-1.56,1.68-3.37,3.05-5.42,4.13s-4.31,1.86-6.76,2.37c-3.37,.69-6.11,.77-7.69,.76-8.7-.09-19.62-.21-27.51-7.7-1.9-1.8-3.11-2.95-4-5-3.76-8.68,6.35-14.78,4-25C4.67,27.15,.45,25.77,.03,18.1c-.19-3.51,.55-5.84,1-7,.53-1.38,2.39-5.57,7-8,1.47-.77,6.4-3.43,10-1,1.43,.97,2.88,2.81,3,5,.21,3.86-3.89,4.83-6,11-.85,2.5-.95,4.58-1,6,0,.08-.01,.31-.01,.56,0,1.08-.03,5.07,2.01,8.44,1.59,2.63,2.97,2.46,5,6,.46,.8,.81,1.55,1,2,2.74,6.62-3.98,13.46-1,19,.64,1.19,1.45,1.81,3,3,4.16,3.19,8.68,3.44,10.1,3.5,2.69,.11,4.76-.39,6.18-.76,1.97-.5,3.78-1.2,5.42-2.1,1.64-.89,3.07-1.95,4.27-3.17,1.2-1.22,2.12-2.56,2.73-4.03,1.27-2.96,1.9-7.96,1.9-14.99V14.74c0-4.17-.46-6.75-1.37-7.76-1.27-1.43-3.16-2.15-5.66-2.15h-2.49Z"/><path class="d" d="M91.28,3.02l40.48,49.66V14.5c0-4.07-.46-6.61-1.37-7.62-1.24-1.37-3.14-2.05-5.71-2.05h-2.29v-1.81h23.05v1.81h-2.34c-2.8,0-4.79,.85-5.96,2.54-.72,1.01-1.07,3.39-1.07,7.13v55.81h-1.76c-.88-1.11-2.17-2.71-3.75-4.6-4.13-4.93-6.3-7.31-8.91-8.93,0,0-4.18-2.6-10.91-4.45-.01,0-.12-.03-.27-.08-.29-.08-.75-.22-1.32-.41-1.16-.39-2.7-1-4.44-1.93-.33-.18-.63-.36-.97-.58-1.24-.8-4.3-2.76-6-6-2.19-4.19-.37-7.18-.7-12.23-.23-3.42-1.48-8.32-6.39-14.11,.85,2.58,1.77,6.47,1.39,11.11-.55,6.65-3.25,8.24-3,14,.22,4.94,2.38,9.1,4,12,2.81,5.04,5.68,7.03,5,10-.73,3.18-4.89,4.62-6,5-4.68,1.62-11.02,.6-13.39-3.32-.86-1.43-.93-2.8-1-5-.16-4.68,1.08-7.8,2-11,1.72-5.99,2.92-10.15,2-15-.7-3.69-2.1-5.08-3.89-12.79-.42-1.81-.64-2.74-.72-3.89-.21-2.83-.6-8.15,3.12-11.88,4.08-4.09,10.18-3.33,11.13-3.2Z"/><path class="d" d="M155.03,67.1c-2.44-3.1-.21-8.52,0-9,.31-.72,.69-1.27,1.43-2.38,2.14-3.22,3.57-4.27,4.57-5.62,3.16-4.26,2.47-12.17-1-16-1.11-1.23-1.88-1.35-3-3-1.93-2.84-1.99-5.94-2-7-.07-8.67,8.42-13.59,6.68-17.12-.48-.98-1.84-2.01-5.66-2.15h-2.49v-1.81h26.95c9.9,0,17.42,1.12,22.56,3.37,5.18,2.25,9.33,5.99,12.45,11.23,3.16,5.21,4.74,11.26,4.74,18.16,0,4.88-.79,9.38-2.37,13.48-1.58,4.1-3.92,7.63-7.03,10.57-3.11,2.95-6.98,5.25-11.62,6.91s-10,2.49-16.09,2.49c-7.4-.15-13.25-.16-17.11-.13-6.29,.03-9.31,.15-11-2Zm17.42-2.65c4.07,.91,7.54,1.37,10.4,1.37,3.74,0,7.22-.69,10.42-2.08,3.21-1.38,5.98-3.35,8.33-5.91,2.34-2.55,4.18-5.66,5.52-9.3,1.33-3.65,2-7.73,2-12.26s-.66-8.66-1.98-12.3c-1.32-3.65-3.16-6.75-5.52-9.3-2.36-2.55-5.18-4.52-8.45-5.88s-6.84-2.05-10.72-2.05c-1.46,0-3.03,.12-4.69,.37s-3.43,.59-5.32,1.05c-2.34,13.07-1.38,22.31,0,28.43,.31,1.38,.57,2.81,.57,2.81,.27,1.24,.77,3.42,1.62,6.39,1.39,4.89,1.72,4.89,2,7,.2,1.5,.41,3.1,0,5-.7,3.27-2.81,5.49-4.19,6.67Z"/><path class="d" d="M274.81,47.06h-25.63c-3.75,3.58-4.33,6.25-4.15,8.03,.28,2.73,2.44,4.44,2,8-.06,.52-.23,1.83-1,3-2.85,4.33-12.85,4.89-17,0-1.63-1.92-1.9-4.13-2-5-.66-5.88,3.89-10.75,6-13,3.17-3.38,5.53-4.3,10-9,.55-.57,2.9-3.1,3-6,.02-.55,.05-1.17-.18-1.94-.5-1.75-1.81-2.43-1.82-5.06-.03-7.32,12.59-10.38,12-17-.15-1.7-1.19-3.83,0-6,.6-1.11,1.52-1.69,2-2,2.13-1.35,5.04-1.45,6.61-.32,.96,.69,1.48,1.66,1.48,1.66,.22,.4,.32,.73,.34,.82,.95,4.27,19.77,46.68,22.31,53.33,.89,2.33,1.85,4.17,2.61,5.49,.8,1.38,1.62,2.46,2.47,3.22,.85,.77,1.77,1.29,2.76,1.59,.99,.29,2.17,.47,3.54,.54v1.81h-26.12v-1.81c1.3-.06,2.39-.21,3.27-.44,.88-.23,1.57-.52,2.08-.88,.5-.36,.86-.76,1.07-1.22,.21-.46,.32-.96,.32-1.51,.03-.72-.12-1.64-.46-2.76s-.84-2.47-1.49-4.03l-4-9.52Zm-1.37-3.61l-11.23-26.76c-.19,9.34-2.76,13.42-5.19,15.4-.91,.75-2.55,1.81-4,4-1.74,2.63-2.21,5.41-2.34,7.35h22.75Z"/></g></g></g></svg>