<svg xmlns="http://www.w3.org/2000/svg" viewBox="0 0 300.16 70.8"><defs><style>.cls-1{fill:#288d61;}</style></defs><g id="Layer_2" data-name="Layer 2"><g id="Layer_1-2" data-name="Layer 1"><path class="cls-1" d="M45.12,4.83V3H68.55V4.83H66.06a6.72,6.72,0,0,0-6,3.27c-.69,1-1,3.39-1,7V42c0,6.61-.67,11.76-2,15.48a17.35,17.35,0,0,1-3.61,6.07A20.09,20.09,0,0,1,48,67.67,25.94,25.94,0,0,1,41.23,70a37.05,37.05,0,0,1-7.69.76c-8.7-.1-19.61-.21-27.51-7.7-1.9-1.81-3.11-3-4-5-3.76-8.68,6.35-14.78,4-25-1.36-6-5.58-7.33-6-15a16.49,16.49,0,0,1,1-7,15.38,15.38,0,0,1,7-8c1.47-.78,6.4-3.43,10-1a6.77,6.77,0,0,1,3,5c.21,3.86-3.89,4.83-6,11a19.85,19.85,0,0,0-1,6c0,.08,0,.31,0,.56a16.51,16.51,0,0,0,2,8.44c1.59,2.63,3,2.45,5,6a19.22,19.22,0,0,1,1,2c2.74,6.62-4,13.46-1,19a9.43,9.43,0,0,0,3,3,17.74,17.74,0,0,0,10.1,3.5,20.48,20.48,0,0,0,6.18-.76,23.13,23.13,0,0,0,5.42-2.1A18.17,18.17,0,0,0,50,60.57a13,13,0,0,0,2.73-4q1.91-4.44,1.91-15V14.74c0-4.17-.46-6.75-1.37-7.76a7.18,7.18,0,0,0-5.66-2.15Z"/><path class="cls-1" d="M91.28,3l40.48,49.66V14.5q0-6.1-1.37-7.62-1.86-2.06-5.71-2h-2.3V3h23.05V4.83h-2.34q-4.2,0-6,2.54c-.72,1-1.08,3.38-1.08,7.13V70.31H134.3c-.88-1.11-2.17-2.71-3.75-4.61-4.13-4.93-6.3-7.3-8.91-8.92a45.2,45.2,0,0,0-10.91-4.45l-.27-.08c-.29-.08-.76-.22-1.32-.41a29.25,29.25,0,0,1-4.44-1.93c-.32-.18-.63-.36-1-.58a16.86,16.86,0,0,1-6-6c-2.19-4.19-.37-7.18-.7-12.23-.23-3.42-1.48-8.32-6.39-14.11A28,28,0,0,1,92,28.1c-.55,6.65-3.25,8.24-3,14,.22,4.94,2.38,9.1,4,12,2.81,5,5.68,7,5,10-.73,3.18-4.89,4.62-6,5-4.68,1.61-11,.6-13.39-3.32-.86-1.44-.93-2.8-1-5-.16-4.69,1.08-7.8,2-11,1.72-6,2.92-10.15,2-15-.7-3.7-2.1-5.08-3.89-12.8A24.06,24.06,0,0,1,77,18.1c-.21-2.83-.6-8.15,3.12-11.88C84.22,2.13,90.33,2.89,91.28,3Z"/><path class="cls-1" d="M155,67.1c-2.44-3.11-.2-8.52,0-9a15.47,15.47,0,0,1,1.43-2.39A55.81,55.81,0,0,1,161,50.1c3.16-4.26,2.47-12.17-1-16-1.11-1.23-1.88-1.35-3-3a12.63,12.63,0,0,1-2-7C155,15.43,163.45,10.51,161.71,7c-.49-1-1.84-2-5.67-2.15h-2.49V3h27q14.84,0,22.56,3.37a26.79,26.79,0,0,1,12.45,11.23,34.44,34.44,0,0,1,4.73,18.17,37.37,37.37,0,0,1-2.36,13.47,28.41,28.41,0,0,1-7,10.57,32.53,32.53,0,0,1-11.62,6.91,47.66,47.66,0,0,1-16.09,2.49c-7.39-.15-13.25-.15-17.11-.13C159.74,69.13,156.72,69.24,155,67.1Zm17.42-2.65a48.9,48.9,0,0,0,10.4,1.36,26.14,26.14,0,0,0,10.43-2.07,24.05,24.05,0,0,0,8.32-5.91,27.67,27.67,0,0,0,5.52-9.3,35.59,35.59,0,0,0,2-12.26,36,36,0,0,0-2-12.3,27.17,27.17,0,0,0-5.51-9.3,23.91,23.91,0,0,0-8.45-5.89,27.67,27.67,0,0,0-10.72-2,31.6,31.6,0,0,0-4.69.37q-2.49.36-5.32,1.05c-2.34,13.07-1.38,22.31,0,28.43.31,1.38.57,2.8.57,2.8.27,1.24.77,3.42,1.62,6.4,1.39,4.88,1.72,4.89,2,7a13.72,13.72,0,0,1,0,5A12.36,12.36,0,0,1,172.45,64.45Z"/><path class="cls-1" d="M274.81,47.06H249.18c-3.75,3.59-4.33,6.25-4.15,8,.28,2.73,2.44,4.44,2,8a6.93,6.93,0,0,1-1,3c-2.85,4.33-12.84,4.89-17,0a9.18,9.18,0,0,1-2-5c-.66-5.89,3.89-10.75,6-13,3.17-3.38,5.53-4.3,10-9,.55-.58,2.9-3.1,3-6a5.82,5.82,0,0,0-.17-2c-.51-1.74-1.82-2.42-1.83-5,0-7.32,12.59-10.38,12-17-.15-1.7-1.19-3.83,0-6a5.4,5.4,0,0,1,2-2c2.13-1.35,5-1.46,6.61-.32a5.5,5.5,0,0,1,1.48,1.66,3.17,3.17,0,0,1,.34.82c1,4.27,19.77,46.68,22.32,53.33a38.45,38.45,0,0,0,2.61,5.49,13.15,13.15,0,0,0,2.47,3.22,6.91,6.91,0,0,0,2.76,1.59,15.53,15.53,0,0,0,3.54.54v1.8H274v-1.8A16.71,16.71,0,0,0,277.3,67a6.43,6.43,0,0,0,2.08-.88,3.21,3.21,0,0,0,1.07-1.22,3.6,3.6,0,0,0,.32-1.52,8.73,8.73,0,0,0-.46-2.76c-.34-1.12-.84-2.46-1.49-4Zm-1.36-3.61L262.22,16.69C262,26,259.45,30.11,257,32.1a16.31,16.31,0,0,0-4,4,15,15,0,0,0-2.34,7.35Z"/></g></g></svg>